<svg width="512" height="512" viewBox="0 0 512 512" fill="none" xmlns="http://www.w3.org/2000/svg">
<path d="M256 512C397.385 512 512 397.385 512 256C512 114.615 397.385 0 256 0C114.615 0 0 114.615 0 256C0 397.385 114.615 512 256 512Z" fill="black"/>
<path d="M247.118 238.25C258.57 238.25 269.468 235.412 279.237 230.458C290.336 209.912 300.412 183.849 300.412 137.427V122.875C300.412 117.969 296.439 114 291.53 114H282.648C241.347 114 203.068 131.888 176.426 161.897C175.244 178.206 179.341 194.175 188.741 207.681C202.064 226.818 223.888 238.25 247.118 238.25ZM247.118 158.375C252.023 158.375 256 162.348 256 167.25C256 172.151 252.023 176.125 247.118 176.125C242.213 176.125 238.236 172.151 238.236 167.25C238.235 162.348 242.212 158.375 247.118 158.375ZM300.412 380.25C271.024 380.25 247.118 356.364 247.118 327C247.118 320.924 247.274 315.352 247.795 310.021C250.009 284.658 257.337 268.751 265.832 253.819C259.747 255.12 253.527 256 247.119 256C218.078 256 190.789 241.725 174.152 217.813C167.043 207.598 162.443 196.256 160.122 184.43C142.956 213.679 137.884 244.721 141.659 274.513C150.609 344.915 213.132 398 287.088 398H300.411C305.321 398 309.294 394.031 309.294 389.125C309.294 384.219 305.321 380.25 300.412 380.25ZM124.031 276.749C120.37 247.853 124.499 218.611 135.967 192.159C136.897 189.922 138.193 187.434 139.412 185H113.883C108.973 185 105.001 188.969 105.001 193.875V273.75C105.001 335.019 149.663 385.943 208.13 396.053C163.183 372.212 130.644 328.741 124.031 276.749ZM389.235 353.798V335.875C389.235 311.408 369.319 291.5 344.823 291.5C339.914 291.5 335.941 295.469 335.941 300.375C335.941 313.531 330.199 325.908 320.171 334.332C309.97 342.904 296.959 346.336 283.479 344.004C277.278 342.91 271.51 340.332 266.424 336.776C270.706 351.58 284.241 362.5 300.411 362.5C315.105 362.5 327.058 374.443 327.058 389.125C327.058 392.252 326.417 395.21 325.422 398H398.117C403.027 398 406.999 394.031 406.999 389.125C407 375.128 400.303 362.023 389.235 353.798Z" fill="white"/>
</svg>
