<svg width="302" height="284" viewBox="0 0 302 284" fill="none" xmlns="http://www.w3.org/2000/svg">
<path d="M142.118 124.25C153.57 124.25 164.468 121.412 174.237 116.458C185.336 95.912 195.412 69.849 195.412 23.427V8.875C195.412 3.969 191.439 0 186.53 0H177.648C136.347 0 98.068 17.888 71.426 47.897C70.244 64.206 74.341 80.175 83.741 93.681C97.064 112.818 118.888 124.25 142.118 124.25ZM142.118 44.375C147.023 44.375 151 48.348 151 53.25C151 58.151 147.023 62.125 142.118 62.125C137.213 62.125 133.236 58.151 133.236 53.25C133.235 48.348 137.212 44.375 142.118 44.375ZM195.412 266.25C166.024 266.25 142.118 242.364 142.118 213C142.118 206.924 142.274 201.352 142.795 196.021C145.009 170.658 152.337 154.751 160.832 139.819C154.747 141.12 148.527 142 142.119 142C113.078 142 85.789 127.725 69.152 103.813C62.043 93.598 57.443 82.256 55.122 70.43C37.956 99.679 32.884 130.721 36.659 160.513C45.609 230.915 108.132 284 182.088 284H195.411C200.321 284 204.294 280.031 204.294 275.125C204.294 270.219 200.321 266.25 195.412 266.25ZM19.031 162.749C15.37 133.853 19.499 104.611 30.967 78.159C31.897 75.922 33.193 73.434 34.412 71H8.88301C3.97301 71 0.00100708 74.969 0.00100708 79.875V159.75C0.00100708 221.019 44.663 271.943 103.13 282.053C58.183 258.212 25.644 214.741 19.031 162.749ZM284.235 239.798V221.875C284.235 197.408 264.319 177.5 239.823 177.5C234.914 177.5 230.941 181.469 230.941 186.375C230.941 199.531 225.199 211.908 215.171 220.332C204.97 228.904 191.959 232.336 178.479 230.004C172.278 228.91 166.51 226.332 161.424 222.776C165.706 237.58 179.241 248.5 195.411 248.5C210.105 248.5 222.058 260.443 222.058 275.125C222.058 278.252 221.417 281.21 220.422 284H293.117C298.027 284 301.999 280.031 301.999 275.125C302 261.128 295.303 248.023 284.235 239.798Z" fill="white"/>
</svg>
