<svg width="604" height="604" viewBox="0 0 604 604" fill="none" xmlns="http://www.w3.org/2000/svg">
<path d="M0.0135446 10.7852C0.03067 25.0821 5.71766 38.7885 15.8271 48.8979C25.9365 59.0073 39.6429 64.6943 53.9397 64.7114H436.815C450.846 64.741 464.722 67.6421 477.589 73.2363C490.456 78.8305 502.041 86.9993 511.633 97.2396C521.279 107.468 528.696 119.589 533.413 132.833C538.131 146.078 540.046 160.158 539.038 174.181C536.77 200.471 524.635 224.928 505.071 242.635C485.507 260.342 459.965 269.987 433.58 269.631H167.185C123.392 269.818 81.4052 287.105 50.1762 317.806C18.9472 348.507 0.946943 390.193 0.0135446 433.976C-0.267681 455.809 3.83302 477.477 12.073 497.697C20.313 517.917 32.5249 536.279 47.9863 551.697C64.1739 568.149 83.4554 581.238 104.721 590.21C125.987 599.182 148.817 603.859 171.898 603.973H530.582C547.722 603.95 564.348 598.118 577.746 587.428L583.246 583.028C584.622 581.93 585.709 580.511 586.41 578.896C587.112 577.282 587.408 575.52 587.271 573.764C587.135 572.009 586.571 570.314 585.629 568.826C584.687 567.339 583.395 566.105 581.866 565.232L563.768 554.889C545.836 544.657 525.549 539.271 504.903 539.262H167.185C153.153 539.231 139.276 536.329 126.407 530.735C113.538 525.141 101.951 516.973 92.3567 506.733C82.7139 496.503 75.3001 484.382 70.5846 471.137C65.8691 457.893 63.9546 443.814 64.9622 429.791C67.2298 403.502 79.3654 379.045 98.9294 361.338C118.493 343.63 144.035 333.986 170.42 334.342H436.815C480.608 334.155 522.595 316.868 553.824 286.167C585.053 255.466 603.053 213.78 603.986 169.997C604.268 148.164 600.167 126.496 591.927 106.276C583.687 86.0558 571.475 67.6937 556.014 52.276C539.826 35.8234 520.545 22.7347 499.279 13.763C478.013 4.79135 455.183 0.11395 432.102 0H10.7988C7.93835 0 5.19509 1.1363 3.17247 3.15892C1.14984 5.18155 0.0135446 7.92481 0.0135446 10.7852ZM506.919 560.832H528.49V582.402H506.919V560.832Z" fill="white"/>
<path d="M431.423 226.49H420.638C413.969 226.518 407.473 228.605 402.036 232.466C396.6 236.327 392.489 241.774 390.266 248.06H433.58C454.498 248.429 474.782 240.867 490.353 226.894C505.925 212.921 515.631 193.573 517.521 172.736C518.316 161.662 516.803 150.544 513.079 140.084C509.355 129.625 503.5 120.052 495.886 111.972C488.314 103.886 479.167 97.4356 469.008 93.0174C458.849 88.5992 447.893 86.307 436.815 86.2819H239.273C241.496 92.5687 245.607 98.0152 251.043 101.876C256.48 105.738 262.976 107.825 269.644 107.852H431.423C447.155 107.852 462.243 114.102 473.368 125.226C484.492 136.351 490.742 151.439 490.742 167.171C490.742 182.903 484.492 197.991 473.368 209.116C462.243 220.24 447.155 226.49 431.423 226.49Z" fill="white"/>
<path d="M167.185 377.483H302C308.668 377.455 315.165 375.368 320.601 371.507C326.038 367.646 330.149 362.199 332.371 355.913H170.42C149.502 355.544 129.219 363.106 113.647 377.079C98.0753 391.052 88.3691 410.4 86.4788 431.237C85.6844 442.311 87.1971 453.429 90.9212 463.889C94.6453 474.348 100.5 483.921 108.114 492.001C115.686 500.087 124.833 506.537 134.992 510.956C145.151 515.374 156.107 517.666 167.185 517.691H451.009C448.786 511.404 444.675 505.958 439.239 502.097C433.802 498.236 427.306 496.148 420.638 496.121H167.185C151.452 496.121 136.364 489.871 125.24 478.747C114.115 467.622 107.866 452.534 107.866 436.802C107.866 421.07 114.115 405.982 125.24 394.857C136.364 383.733 151.452 377.483 167.185 377.483Z" fill="white"/>
</svg>
