<svg width="1024" height="1024" viewBox="0 0 1024 1024" fill="none" xmlns="http://www.w3.org/2000/svg">
<circle cx="512" cy="512" r="512" fill="black"/>
<path d="M210.014 220.785C210.031 235.082 215.718 248.788 225.827 258.898C235.936 269.007 249.643 274.694 263.94 274.711H646.815C660.846 274.741 674.722 277.642 687.589 283.236C700.456 288.831 712.041 296.999 721.633 307.24C731.279 317.468 738.696 329.589 743.413 342.833C748.131 356.078 750.046 370.158 749.038 384.181C746.77 410.471 734.635 434.928 715.071 452.635C695.507 470.342 669.965 479.987 643.58 479.631H377.185C333.392 479.818 291.405 497.105 260.176 527.806C228.947 558.507 210.947 600.193 210.014 643.976C209.732 665.809 213.833 687.477 222.073 707.697C230.313 727.917 242.525 746.279 257.986 761.697C274.174 778.149 293.455 791.238 314.721 800.21C335.987 809.182 358.817 813.859 381.898 813.973H740.582C757.722 813.95 774.348 808.118 787.746 797.428L793.246 793.028C794.622 791.93 795.709 790.511 796.41 788.896C797.112 787.282 797.408 785.52 797.271 783.764C797.135 782.009 796.571 780.314 795.629 778.826C794.687 777.339 793.395 776.105 791.866 775.232L773.768 764.889C755.836 754.657 735.549 749.271 714.903 749.262H377.185C363.153 749.231 349.276 746.329 336.407 740.735C323.538 735.141 311.951 726.973 302.357 716.733C292.714 706.503 285.3 694.382 280.585 681.137C275.869 667.893 273.955 653.814 274.962 639.791C277.23 613.502 289.365 589.045 308.929 571.338C328.493 553.63 354.035 543.986 380.42 544.342H646.815C690.608 544.155 732.595 526.868 763.824 496.167C795.053 465.466 813.053 423.78 813.986 379.997C814.268 358.164 810.167 336.496 801.927 316.276C793.687 296.056 781.475 277.694 766.014 262.276C749.826 245.823 730.545 232.735 709.279 223.763C688.013 214.791 665.183 210.114 642.102 210H220.799C217.938 210 215.195 211.136 213.172 213.159C211.15 215.182 210.014 217.925 210.014 220.785V220.785ZM716.919 770.832H738.49V792.402H716.919V770.832Z" fill="white"/>
<path d="M641.423 436.49H630.638C623.97 436.518 617.473 438.605 612.036 442.466C606.6 446.327 602.489 451.774 600.266 458.06H643.58C664.498 458.429 684.782 450.867 700.353 436.894C715.925 422.921 725.631 403.573 727.521 382.736C728.316 371.662 726.803 360.544 723.079 350.084C719.355 339.625 713.5 330.052 705.886 321.972C698.314 313.886 689.167 307.436 679.008 303.017C668.849 298.599 657.893 296.307 646.815 296.282H449.273C451.496 302.569 455.607 308.015 461.043 311.876C466.48 315.738 472.976 317.825 479.644 317.852H641.423C657.155 317.852 672.243 324.102 683.368 335.226C694.492 346.351 700.742 361.439 700.742 377.171C700.742 392.903 694.492 407.991 683.368 419.116C672.243 430.24 657.155 436.49 641.423 436.49Z" fill="white"/>
<path d="M377.185 587.483H512C518.668 587.455 525.165 585.368 530.601 581.507C536.038 577.646 540.149 572.199 542.371 565.913H380.42C359.502 565.544 339.219 573.106 323.647 587.079C308.075 601.052 298.369 620.4 296.479 641.237C295.684 652.311 297.197 663.429 300.921 673.889C304.645 684.348 310.5 693.921 318.114 702.001C325.686 710.087 334.833 716.537 344.992 720.956C355.151 725.374 366.107 727.666 377.185 727.691H661.009C658.786 721.404 654.675 715.958 649.239 712.097C643.802 708.236 637.306 706.148 630.638 706.121H377.185C361.452 706.121 346.364 699.871 335.24 688.747C324.116 677.622 317.866 662.534 317.866 646.802C317.866 631.07 324.116 615.982 335.24 604.857C346.364 593.733 361.452 587.483 377.185 587.483V587.483Z" fill="white"/>
</svg>
