<svg width="512" height="512" viewBox="0 0 512 512" fill="none" xmlns="http://www.w3.org/2000/svg">
<path fill-rule="evenodd" clip-rule="evenodd" d="M256 441.231C287.18 441.231 316.513 433.436 344 417.846C370.667 403.487 392.615 383.59 409.846 358.154C409.436 342.564 399.795 328.205 380.923 315.077C364.513 304 343.59 294.974 318.154 288C295.179 281.846 274.359 278.769 255.692 278.769C237.026 278.769 216.205 281.846 193.231 288C167.795 294.974 147.077 304 131.077 315.077C112.205 328.205 102.564 342.564 102.154 358.154C119.385 383.59 141.333 403.487 168 417.846C195.898 433.436 225.231 441.231 256 441.231ZM256 76.9231C242.461 76.9231 229.744 80.4102 217.846 87.3846C205.949 94.359 196.513 103.795 189.538 115.692C182.564 127.59 179.077 140.308 179.077 153.846C179.077 167.385 182.564 180.103 189.538 192C196.513 203.898 205.949 213.333 217.846 220.308C229.744 227.282 242.461 230.769 256 230.769C269.538 230.769 282.256 227.282 294.154 220.308C306.051 213.333 315.487 203.898 322.461 192C329.436 180.103 332.923 167.385 332.923 153.846C332.923 140.308 329.436 127.59 322.461 115.692C315.487 103.795 306.051 94.359 294.154 87.3846C282.256 80.4102 269.538 76.9231 256 76.9231Z" fill="white"/>
</svg>
