<svg width="26" height="35" viewBox="0 0 26 35" fill="none" xmlns="http://www.w3.org/2000/svg">
<path d="M18.3 8.69998L13 3.39998L7.70005 8.69998L6.30005 7.29998L13 0.599976L19.7001 7.29998L18.3 8.69998Z" fill="black"/>
<path d="M12 2H14V23H12V2Z" fill="black"/>
<path d="M23 35H3C1.3 35 0 33.7 0 32V14C0 12.3 1.3 11 3 11H10V13H3C2.4 13 2 13.4 2 14V32C2 32.6 2.4 33 3 33H23C23.6 33 24 32.6 24 32V14C24 13.4 23.6 13 23 13H16V11H23C24.7 11 26 12.3 26 14V32C26 33.7 24.7 35 23 35Z" fill="black"/>
</svg>
