<svg width="66" height="48" viewBox="0 0 66 48" fill="none" xmlns="http://www.w3.org/2000/svg">
<g filter="url(#filter0_d)">
<path d="M53.953 30.958C53.953 30.958 49.984 28.61 51.069 24.295C50.3759 25.8139 49.3253 27.1423 48.007 28.1667C46.6888 29.1912 45.142 29.8812 43.499 30.1778C41.8561 30.4744 40.1657 30.3687 38.5724 29.8698C36.9792 29.3709 35.5304 28.4936 34.35 27.313L16.65 9.60501C15.0517 8.00674 12.8839 7.10886 10.6235 7.10886C8.36315 7.10886 6.19536 8.00674 4.597 9.60501L4.138 10.064C4.09567 10.1063 4.0621 10.1564 4.03918 10.2117C4.01627 10.267 4.00447 10.3262 4.00447 10.386C4.00447 10.4458 4.01627 10.5051 4.03918 10.5603C4.0621 10.6156 4.09567 10.6657 4.138 10.708C6.925 13.499 26.879 33.479 27.115 33.72C29.0548 35.7771 31.4086 37.3996 34.0214 38.4803C36.6341 39.5611 39.4463 40.0756 42.2724 39.9899C45.0985 39.9042 47.8744 39.2202 50.4168 37.9831C52.9592 36.746 55.2105 34.9839 57.022 32.813C55.9976 32.197 54.9746 31.5787 53.953 30.958Z" fill="#FF8761"/>
<path d="M27.039 20C30.887 16.151 34.334 12.7 34.348 12.69C36.0631 10.9727 38.3277 9.91343 40.7452 9.69773C43.1627 9.48202 45.5791 10.1236 47.5711 11.5102C49.5632 12.8967 51.004 14.9398 51.6413 17.2818C52.2786 19.6237 52.0718 22.1152 51.057 24.32L51.069 24.295C50.7931 25.5059 50.8921 26.772 51.3527 27.9252C51.8133 29.0785 52.6139 30.0644 53.648 30.752L56.22 32.331L57.02 32.812C60.3349 28.8249 61.9718 23.7062 61.5854 18.5355C61.199 13.3647 58.8196 8.54615 54.9489 5.09598C51.0782 1.64581 46.0189 -0.166275 40.8379 0.0419332C35.657 0.250142 30.7593 2.46236 27.178 6.21201L20.222 13.18L27.039 20Z" fill="#FF5722"/>
<path d="M13.412 19.999L4.13701 29.289C4.09422 29.3317 4.06028 29.3825 4.03712 29.4383C4.01397 29.4942 4.00204 29.554 4.00204 29.6145C4.00204 29.675 4.01397 29.7348 4.03712 29.7907C4.06028 29.8465 4.09422 29.8973 4.13701 29.94L4.593 30.396C6.19136 31.9943 8.35915 32.8922 10.6195 32.8922C12.8799 32.8922 15.0477 31.9943 16.646 30.396L20.222 26.819L13.412 19.999Z" fill="#FF5722"/>
</g>
<defs>
<filter id="filter0_d" x="0.00204468" y="0.0257874" width="65.639" height="47.9733" filterUnits="userSpaceOnUse" color-interpolation-filters="sRGB">
<feFlood flood-opacity="0" result="BackgroundImageFix"/>
<feColorMatrix in="SourceAlpha" type="matrix" values="0 0 0 0 0 0 0 0 0 0 0 0 0 0 0 0 0 0 127 0"/>
<feOffset dy="4"/>
<feGaussianBlur stdDeviation="2"/>
<feColorMatrix type="matrix" values="0 0 0 0 0 0 0 0 0 0 0 0 0 0 0 0 0 0 1 0"/>
<feBlend mode="normal" in2="BackgroundImageFix" result="effect1_dropShadow"/>
<feBlend mode="normal" in="SourceGraphic" in2="effect1_dropShadow" result="shape"/>
</filter>
</defs>
</svg>
