<svg width="58" height="40" viewBox="0 0 58 40" fill="none" xmlns="http://www.w3.org/2000/svg">
<path d="M49.953 30.958C49.953 30.958 45.984 28.61 47.069 24.295C46.3759 25.8139 45.3253 27.1423 44.007 28.1667C42.6887 29.1912 41.142 29.8812 39.499 30.1778C37.8561 30.4744 36.1657 30.3687 34.5724 29.8698C32.9792 29.3709 31.5304 28.4936 30.35 27.313L12.65 9.60501C11.0517 8.00674 8.88386 7.10886 6.6235 7.10886C4.36315 7.10886 2.19536 8.00674 0.597 9.60501L0.138 10.064C0.09567 10.1063 0.0620976 10.1564 0.0391846 10.2117C0.0162715 10.267 0.00447083 10.3262 0.00447083 10.386C0.00447083 10.4458 0.0162715 10.5051 0.0391846 10.5603C0.0620976 10.6156 0.09567 10.6657 0.138 10.708C2.925 13.499 22.879 33.479 23.115 33.72C25.0548 35.7771 27.4086 37.3996 30.0214 38.4803C32.6341 39.5611 35.4463 40.0756 38.2724 39.9899C41.0985 39.9042 43.8744 39.2202 46.4168 37.9831C48.9592 36.746 51.2105 34.9839 53.022 32.813C51.9976 32.197 50.9746 31.5787 49.953 30.958V30.958Z" fill="#FF5722"/>
<path d="M23.039 20C26.887 16.151 30.334 12.7 30.348 12.69C32.0631 10.9727 34.3277 9.91343 36.7452 9.69773C39.1627 9.48202 41.5791 10.1236 43.5711 11.5102C45.5632 12.8967 47.004 14.9398 47.6413 17.2818C48.2786 19.6237 48.0718 22.1152 47.057 24.32L47.069 24.295C46.7931 25.5059 46.8921 26.772 47.3527 27.9252C47.8133 29.0785 48.6139 30.0644 49.648 30.752L52.22 32.331L53.02 32.812C56.3349 28.8249 57.9718 23.7062 57.5854 18.5355C57.199 13.3647 54.8196 8.54615 50.9489 5.09598C47.0782 1.64581 42.0189 -0.166275 36.8379 0.0419332C31.657 0.250142 26.7593 2.46236 23.178 6.21201L16.222 13.18L23.039 20Z" fill="#FF5722"/>
<path d="M9.412 19.999L0.137009 29.289C0.0942245 29.3317 0.0602827 29.3825 0.0371246 29.4383C0.0139666 29.4942 0.00204468 29.554 0.00204468 29.6145C0.00204468 29.675 0.0139666 29.7348 0.0371246 29.7907C0.0602827 29.8465 0.0942245 29.8973 0.137009 29.94L0.593002 30.396C2.19136 31.9943 4.35915 32.8922 6.61951 32.8922C8.87986 32.8922 11.0477 31.9943 12.646 30.396L16.222 26.819L9.412 19.999Z" fill="#FF5722"/>
</svg>
