<?xml version="1.0" encoding="UTF-8"?><!DOCTYPE svg PUBLIC "-//W3C//DTD SVG 1.1//EN" "http://www.w3.org/Graphics/SVG/1.1/DTD/svg11.dtd"><svg xmlns="http://www.w3.org/2000/svg" xmlns:xlink="http://www.w3.org/1999/xlink" version="1.1" id="Layer_1" x="0px" y="0px" width="100px" height="100px" viewBox="0 0 100 100" xml:space="preserve"><path id="Robo.to" d="M57.689 40.929c0-1.804 1.449-3.266 3.24-3.266 1.787 0 3.237 1.462 3.237 3.266s-1.45 3.267-3.237 3.267c-1.79-.001-3.24-1.464-3.24-3.267zM47.611 13.106h-.027v4.477h4.109v-4.346a4.346 4.346 0 0 0 2.395-3.881c0-2.406-1.932-4.355-4.318-4.355-2.385 0-4.319 1.949-4.319 4.355a4.332 4.332 0 0 0 2.16 3.75zm-8.992 31.089c1.787 0 3.237-1.463 3.237-3.267s-1.45-3.266-3.237-3.266c-1.791 0-3.24 1.462-3.24 3.266s1.449 3.267 3.24 3.267zM49.77 95.001c4.875 0 9.018-3.127 10.592-7.5H39.178c1.574 4.373 5.716 7.5 10.592 7.5zM16 81.731a4.344 4.344 0 0 1 2.453-3.911V59.302c0-3.652 2.82-6.635 6.385-6.872v-8.96s.867-16.332 14.34-21.412C43.18 20.55 46.834 19.94 50 19.825c3.168.115 6.822.725 10.821 2.232 13.475 5.08 14.343 21.412 14.343 21.412v8.96c3.563.237 6.383 3.22 6.383 6.872V77.82A4.345 4.345 0 0 1 84 81.731c0 2.405-1.934 4.354-4.319 4.354-2.384 0-4.317-1.949-4.317-4.354a4.346 4.346 0 0 1 2.45-3.911V65.44a6.767 6.767 0 0 1-2.649.729v4.302c.024.348.053.693.053 1.049 0 .377-.025.75-.053 1.123v.1h-.005c-.575 7.168-6.136 12.911-13.185 13.694l.006.097H38.018l.008-.097c-7.049-.783-12.609-6.526-13.184-13.694h-.004v-.1a15.518 15.518 0 0 1-.053-1.123c0-.355.027-.701.053-1.049V66.17a6.772 6.772 0 0 1-2.653-.729v12.38a4.345 4.345 0 0 1 2.453 3.911c0 2.405-1.933 4.354-4.319 4.354-2.384 0-4.319-1.949-4.319-4.355zm41.207-22.775c0-1.156-.93-2.096-2.078-2.096-1.15 0-2.08.939-2.08 2.096 0 1.158.93 2.098 2.08 2.098 1.148 0 2.078-.94 2.078-2.098zm5.117 0c0-1.156-.93-2.096-2.078-2.096s-2.08.939-2.08 2.096c0 1.158.932 2.098 2.08 2.098s2.078-.94 2.078-2.098zm5.119 0c0-1.156-.93-2.096-2.078-2.096-1.15 0-2.08.939-2.08 2.096 0 1.158.93 2.098 2.08 2.098 1.149 0 2.078-.94 2.078-2.098zM32.5 41.534c0 5.564 4.319 5.928 4.319 5.928 1.503.479 4.679.241 6.116 0 1.323-.225 6.176-.648 6.949-.717.029.003.076.008.115.01.041-.002.087-.007.115-.01.772.068 5.625.492 6.948.717 1.44.241 4.614.479 6.118 0 0 0 4.317-.363 4.317-5.928 0 0 0-6.17-4.317-9.92-4.188-3.637-10.482-4.426-12.952-4.473v-.004l-.114.003-.115-.003-.115.003-.115-.003v.004c-2.467.047-8.763.836-12.95 4.473-4.319 3.75-4.319 9.92-4.319 9.92z"/><metadata><rdf:RDF xmlns:rdf="http://www.w3.org/1999/02/22-rdf-syntax-ns#" xmlns:rdfs="http://www.w3.org/2000/01/rdf-schema#" xmlns:dc="http://purl.org/dc/elements/1.1/"><rdf:Description about="https://iconscout.com/legal#licenses" dc:title="roboto" dc:description="roboto" dc:publisher="Iconscout" dc:date="2018-02-25" dc:format="image/svg+xml" dc:language="en"><dc:creator><rdf:Bag><rdf:li>Icons Mind</rdf:li></rdf:Bag></dc:creator></rdf:Description></rdf:RDF></metadata></svg>