<svg width="1286" height="512" viewBox="0 0 1286 512" fill="none" xmlns="http://www.w3.org/2000/svg">
<path d="M247.118 238.25C258.57 238.25 269.468 235.412 279.237 230.458C290.336 209.912 300.412 183.849 300.412 137.427V122.875C300.412 117.969 296.439 114 291.53 114H282.648C241.347 114 203.068 131.888 176.426 161.897C175.244 178.206 179.341 194.175 188.741 207.681C202.064 226.818 223.888 238.25 247.118 238.25ZM247.118 158.375C252.023 158.375 256 162.348 256 167.25C256 172.151 252.023 176.125 247.118 176.125C242.213 176.125 238.236 172.151 238.236 167.25C238.235 162.348 242.212 158.375 247.118 158.375ZM300.412 380.25C271.024 380.25 247.118 356.364 247.118 327C247.118 320.924 247.274 315.352 247.795 310.021C250.009 284.658 257.337 268.751 265.832 253.819C259.747 255.12 253.527 256 247.119 256C218.078 256 190.789 241.725 174.152 217.813C167.043 207.598 162.443 196.256 160.122 184.43C142.956 213.679 137.884 244.721 141.659 274.513C150.609 344.915 213.132 398 287.088 398H300.411C305.321 398 309.294 394.031 309.294 389.125C309.294 384.219 305.321 380.25 300.412 380.25ZM124.031 276.749C120.37 247.853 124.499 218.611 135.967 192.159C136.897 189.922 138.193 187.434 139.412 185H113.883C108.973 185 105.001 188.969 105.001 193.875V273.75C105.001 335.019 149.663 385.943 208.13 396.053C163.183 372.212 130.644 328.741 124.031 276.749ZM389.235 353.798V335.875C389.235 311.408 369.319 291.5 344.823 291.5C339.914 291.5 335.941 295.469 335.941 300.375C335.941 313.531 330.199 325.908 320.171 334.332C309.97 342.904 296.959 346.336 283.479 344.004C277.278 342.91 271.51 340.332 266.424 336.776C270.706 351.58 284.241 362.5 300.411 362.5C315.105 362.5 327.058 374.443 327.058 389.125C327.058 392.252 326.417 395.21 325.422 398H398.117C403.027 398 406.999 394.031 406.999 389.125C407 375.128 400.303 362.023 389.235 353.798Z" fill="black"/>
<path d="M574.109 132.359L569.539 150.641C562.742 146.344 556.375 144.195 550.438 144.195C546.844 144.195 543.914 145.094 541.648 146.891C539.148 148.766 537.898 151.227 537.898 154.273C537.898 157.398 539.07 159.781 541.414 161.422C542.898 162.438 545.828 163.727 550.203 165.289C557.312 167.711 562.078 169.586 564.5 170.914C574.188 176.227 579.031 184.273 579.031 195.055C579.031 204.273 575.633 211.773 568.836 217.555C562.352 223.102 554.031 225.875 543.875 225.875C533.328 225.875 523.289 222.945 513.758 217.086L519.734 198.805C527.703 204.508 535.477 207.359 543.055 207.359C547.43 207.359 551.102 206.422 554.07 204.547C557.195 202.672 558.758 199.977 558.758 196.461C558.758 193.258 557.234 190.484 554.188 188.141C552.391 186.734 548.562 185.016 542.703 182.984C535.75 180.562 530.32 177.867 526.414 174.898C520.555 170.445 517.625 163.922 517.625 155.328C517.625 147.125 520.438 140.25 526.062 134.703C532.156 128.609 540.086 125.562 549.852 125.562C557.977 125.562 566.062 127.828 574.109 132.359ZM610.32 163.766H643.719V127.555H663.992V224H643.719V182.398H610.32V224H590.047V127.555H610.32V163.766ZM678.992 127.555H699.383V224H678.992V127.555ZM757.391 183.102L785.047 224H761.023L736.648 184.859H734.188V224H714.266V127.555H743.211C751.492 127.555 757.898 128.688 762.43 130.953C767.352 133.375 771.102 137.008 773.68 141.852C776.102 146.227 777.312 151.148 777.312 156.617C777.312 166.617 773.523 174.195 765.945 179.352C763.602 180.992 760.75 182.242 757.391 183.102ZM734.188 146.188V167.516H741.805C746.57 167.516 750.047 166.891 752.234 165.641C755.438 163.766 757.039 160.797 757.039 156.734C757.039 152.594 755.516 149.664 752.469 147.945C750.359 146.773 746.844 146.188 741.922 146.188H734.188ZM849.266 203.023H812.469L805.555 224H783.172L818.211 127.555H843.523L878.562 224H856.18L849.266 203.023ZM843.523 185.797L830.867 147.711L818.211 185.797H843.523ZM941.961 132.359L937.391 150.641C930.594 146.344 924.227 144.195 918.289 144.195C914.695 144.195 911.766 145.094 909.5 146.891C907 148.766 905.75 151.227 905.75 154.273C905.75 157.398 906.922 159.781 909.266 161.422C910.75 162.438 913.68 163.727 918.055 165.289C925.164 167.711 929.93 169.586 932.352 170.914C942.039 176.227 946.883 184.273 946.883 195.055C946.883 204.273 943.484 211.773 936.688 217.555C930.203 223.102 921.883 225.875 911.727 225.875C901.18 225.875 891.141 222.945 881.609 217.086L887.586 198.805C895.555 204.508 903.328 207.359 910.906 207.359C915.281 207.359 918.953 206.422 921.922 204.547C925.047 202.672 926.609 199.977 926.609 196.461C926.609 193.258 925.086 190.484 922.039 188.141C920.242 186.734 916.414 185.016 910.555 182.984C903.602 180.562 898.172 177.867 894.266 174.898C888.406 170.445 885.477 163.922 885.477 155.328C885.477 147.125 888.289 140.25 893.914 134.703C900.008 128.609 907.938 125.562 917.703 125.562C925.828 125.562 933.914 127.828 941.961 132.359ZM1020.59 127.555H1040.87V183.336C1040.87 192.945 1039.42 200.758 1036.53 206.773C1033.72 212.477 1029.42 217.008 1023.64 220.367C1017.23 224.039 1009.15 225.875 999.383 225.875C985.398 225.875 974.812 222.086 967.625 214.508C961.141 207.711 957.898 197.32 957.898 183.336V127.555H978.172V182.516C978.172 190.016 979.109 195.367 980.984 198.57C984.344 204.43 990.477 207.359 999.383 207.359C1008.99 207.359 1015.32 204.039 1018.37 197.398C1019.85 194.273 1020.59 189.312 1020.59 182.516V127.555ZM548.094 343.906C548.562 341.328 548.797 338.789 548.797 336.289V333.359H518.328V317.188H548.797V305.703H516.336V288.945H548.797V277.227H566.961V335.703C566.961 337.578 566.883 339.57 566.727 341.68H567.195C569.227 341.289 571.258 340.898 573.289 340.508V357.148C569.695 357.773 566.258 358.359 562.977 358.906C558.68 371.797 547.078 382.969 528.172 392.422L516.57 375.312C527.664 371.562 535.594 367.148 540.359 362.07L529.461 363.125L518.562 364.297L516.57 364.414L514.695 345.898C523.211 345.82 533.133 345.234 544.461 344.141C546.023 343.984 547.234 343.906 548.094 343.906ZM596.609 277.227V288.945H627.664V306.172H596.609V318.477H625.203V335H596.609V349.18H628.602V366.758H596.609V391.25H578.328V277.227H596.609ZM723.523 381.172C710.945 382.891 683.328 384.805 640.672 386.914L638.328 368.164C638.484 368.164 643.641 368.008 653.797 367.695C662.469 349.57 669.617 331.133 675.242 312.383L694.695 316.25C687.742 336.328 680.672 353.281 673.484 367.109L679.812 366.875C693.719 366.406 705.203 365.703 714.266 364.766C709.656 357.266 704.578 350.43 699.031 344.258L716.023 334.648C728.367 348.555 738.953 364.531 747.781 382.578L728.328 391.367C726.531 387.305 724.93 383.906 723.523 381.172ZM683.094 281.211C675.672 302.07 663.094 319.883 645.359 334.648L632.586 317.422C639.695 312.5 646.062 306.484 651.688 299.375C657.391 292.188 661.844 284.531 665.047 276.406L683.094 281.211ZM738.055 334.766C720.867 320.938 708.25 303.242 700.203 281.68L718.133 276.289C720.477 283.242 724.93 290.898 731.492 299.258C737.352 306.758 743.875 313.164 751.062 318.477L738.055 334.766ZM857.234 294.219H868.602V311.562H835.203V312.031C835.75 321.016 836.219 327.305 836.609 330.898C837.078 334.414 837.977 339.062 839.305 344.844C841.648 355.078 844.227 362.148 847.039 366.055C848.133 367.617 849.227 368.398 850.32 368.398C851.492 368.398 852.82 367.617 854.305 366.055C858.133 362.148 861.023 357.5 862.977 352.109L870.594 371.094C868.562 376.797 866.258 381.211 863.68 384.336C859.852 389.102 855.555 391.484 850.789 391.484C841.414 391.484 833.523 384.648 827.117 370.977C821.18 358.086 817.781 339.961 816.922 316.602L816.805 311.562H755.398V294.219H816.102C816.023 291.094 815.945 288.75 815.867 287.188C815.711 282.969 815.633 279.766 815.633 277.578H834.734V279.922V293.75V294.219H846.57C843.211 289.062 840.281 285.312 837.781 282.969L853.25 276.758C855.359 278.32 859.227 283.008 864.852 290.82L857.234 294.219ZM776.727 368.281V339.453H757.625V321.992H813.758V339.453H795.008V366.758C803.914 365.82 811.531 364.766 817.859 363.594L818.094 380.586C812.156 381.914 805.789 383.008 798.992 383.867C795.164 384.414 781.844 385.898 759.031 388.32L756.336 388.672L754.344 369.805C754.5 369.805 761.961 369.297 776.727 368.281ZM935.984 329.961C935.906 330.43 935.828 330.977 935.75 331.602C933.719 349.414 926.297 363.594 913.484 374.141C907.625 378.906 900.906 383.047 893.328 386.562L880.789 371.211C887.586 368.711 893.602 365.43 898.836 361.367C906.57 355.508 911.648 348.672 914.07 340.859C916.102 334.297 917.234 325.117 917.469 313.32L937.156 313.438C937 318.281 936.727 322.852 936.336 327.148C942.195 324.102 946.883 320.938 950.398 317.656C953.992 314.297 956.844 309.961 958.953 304.648H880.789V286.25H983.094C980.984 301.562 976.688 313.711 970.203 322.695C965.125 329.727 957.625 336.172 947.703 342.031L935.984 329.961ZM1096.53 273.828C1101.22 273.828 1105.16 275.625 1108.37 279.219C1111.18 282.266 1112.59 285.898 1112.59 290.117C1112.59 294.961 1110.79 299.023 1107.2 302.305C1104.15 305.039 1100.52 306.406 1096.3 306.406C1091.45 306.406 1087.43 304.609 1084.23 301.016C1081.41 297.969 1080.01 294.297 1080.01 290C1080.01 285.312 1081.8 281.328 1085.4 278.047C1088.45 275.234 1092.16 273.828 1096.53 273.828ZM1096.18 281.914C1093.84 281.914 1091.88 282.812 1090.32 284.609C1088.91 286.172 1088.21 288.008 1088.21 290.117C1088.21 292.539 1089.11 294.57 1090.91 296.211C1092.47 297.617 1094.27 298.32 1096.3 298.32C1098.72 298.32 1100.75 297.422 1102.39 295.625C1103.72 294.062 1104.38 292.188 1104.38 290C1104.38 287.656 1103.48 285.664 1101.69 284.023C1100.2 282.617 1098.37 281.914 1096.18 281.914ZM1003.02 290.352H1071.8L1091.73 313.906C1090.24 321.719 1088.33 328.711 1085.98 334.883C1079.34 352.461 1066.69 366.055 1048.02 375.664C1039.11 380.195 1029.5 383.477 1019.19 385.508L1010.52 367.578C1030.36 363.984 1045.32 357.188 1055.4 347.188C1062.35 340.312 1067.27 330.82 1070.16 318.711C1070.79 316.211 1071.38 313.086 1071.92 309.336H1003.02V290.352ZM1153.25 286.367V350.469H1133.21V286.367H1153.25ZM1209.5 284.609V334.297C1209.5 343.359 1207.66 351.523 1203.99 358.789C1199.3 368.008 1191.1 374.727 1179.38 378.945C1170.09 382.305 1158.99 384.57 1146.1 385.742L1138.95 367.344C1155.75 366.094 1168.05 363.594 1175.87 359.844C1184.77 355.547 1189.23 347.539 1189.23 335.82V284.609H1209.5Z" fill="black"/>
</svg>
