<svg width="214" height="200" viewBox="0 0 214 200" fill="none" xmlns="http://www.w3.org/2000/svg">
<path d="M100.755 87.5195C108.807 87.5195 116.47 85.5241 123.339 82.0408C131.142 67.5944 138.227 49.2688 138.227 16.6284V6.39648C138.227 2.94695 135.434 0.15625 131.982 0.15625H125.737C96.6971 0.15625 69.7822 12.7338 51.0495 33.8338C50.2184 45.3011 53.0991 56.5293 59.7085 66.0257C69.0762 79.4814 84.4213 87.5195 100.755 87.5195V87.5195ZM100.755 31.3574C104.204 31.3574 107 34.1509 107 37.5977C107 41.0437 104.204 43.8379 100.755 43.8379C97.306 43.8379 94.5097 41.0437 94.5097 37.5977C94.509 34.1509 97.3053 31.3574 100.755 31.3574ZM138.227 187.363C117.564 187.363 100.755 170.568 100.755 149.922C100.755 145.65 100.865 141.732 101.231 137.984C102.788 120.15 107.94 108.966 113.913 98.4665C109.635 99.3813 105.261 100 100.756 100C80.3361 100 61.1485 89.9629 49.4506 73.1498C44.4521 65.9673 41.2177 57.9925 39.5858 49.6773C27.5159 70.243 23.9497 92.0695 26.604 113.017C32.8969 162.518 76.8584 199.844 128.859 199.844H138.226C141.679 199.844 144.472 197.053 144.472 193.604C144.472 190.154 141.679 187.363 138.227 187.363V187.363ZM14.2093 114.589C11.6352 94.2716 14.5384 73.7109 22.6018 55.1118C23.2557 53.5389 24.167 51.7895 25.0241 50.0781H7.07399C3.62164 50.0781 0.828827 52.8688 0.828827 56.3184V112.48C0.828827 155.56 32.2318 191.366 73.3414 198.475C41.7381 181.712 18.8591 151.146 14.2093 114.589V114.589ZM200.681 168.764V156.162C200.681 138.959 186.677 124.961 169.454 124.961C166.002 124.961 163.209 127.752 163.209 131.201C163.209 140.451 159.171 149.154 152.12 155.077C144.948 161.104 135.799 163.517 126.321 161.878C121.961 161.109 117.905 159.296 114.329 156.796C117.34 167.205 126.857 174.883 138.226 174.883C148.558 174.883 156.963 183.28 156.963 193.604C156.963 195.802 156.512 197.882 155.812 199.844H206.926C210.378 199.844 213.171 197.053 213.171 193.604C213.172 183.762 208.463 174.547 200.681 168.764Z" fill="white"/>
</svg>
