<svg width="64" height="64" viewBox="0 0 64 64" fill="none" xmlns="http://www.w3.org/2000/svg">
    <path
        d="M32 64C49.6731 64 64 49.6731 64 32C64 14.3269 49.6731 0 32 0C14.3269 0 0 14.3269 0 32C0 49.6731 14.3269 64 32 64Z"
        fill="#0057FF" />
    <path
        d="M22.033 25.782C16.77 27.135 12.786 29.582 11 31.71C12.8 33.864 16.841 36.328 22.173 37.674C23.5251 36.0198 24.2717 33.9534 24.289 31.817C24.2694 29.6028 23.4707 27.4661 22.033 25.782V25.782ZM18.17 31.982C18.0038 32.0162 17.8321 32.013 17.6673 31.9726C17.5025 31.9322 17.3488 31.8557 17.2173 31.7485C17.0858 31.6413 16.9798 31.5062 16.907 31.3529C16.8342 31.1997 16.7964 31.0321 16.7964 30.8625C16.7964 30.6928 16.8342 30.5253 16.907 30.372C16.9798 30.2188 17.0858 30.0837 17.2173 29.9765C17.3488 29.8693 17.5025 29.7927 17.6673 29.7523C17.8321 29.7119 18.0038 29.7088 18.17 29.743C18.3366 29.7079 18.5089 29.7105 18.6743 29.7505C18.8398 29.7905 18.9942 29.8669 19.1264 29.9742C19.2585 30.0814 19.3651 30.2169 19.4383 30.3705C19.5115 30.5242 19.5495 30.6923 19.5495 30.8625C19.5495 31.0327 19.5115 31.2008 19.4383 31.3544C19.3651 31.5081 19.2585 31.6435 19.1264 31.7508C18.9942 31.858 18.8398 31.9345 18.6743 31.9745C18.5089 32.0145 18.3366 32.017 18.17 31.982Z"
        fill="white" />
    <path
        d="M50.827 31.955C50.7472 31.6943 50.7472 31.4157 50.827 31.155L51.874 27.726C51.9502 27.4804 51.9547 27.2181 51.8868 26.9701C51.819 26.722 51.6817 26.4986 51.491 26.326C51.3066 26.1608 51.0752 26.0575 50.8291 26.0306C50.583 26.0037 50.3347 26.0546 50.119 26.176L43.952 29.639C41.2793 27.5469 38.2263 25.9929 34.962 25.063C34.9327 24.348 34.7045 23.6553 34.303 23.063C33.587 22.122 29.062 23.499 26.859 24.403C25.7018 24.5277 24.5565 24.7451 23.434 25.053C24.6377 27.0946 25.2824 29.4172 25.3031 31.7872C25.3238 34.1571 24.7199 36.4907 23.552 38.553C25.2433 39.0068 26.9833 39.2542 28.734 39.29C28.8047 39.4031 28.8928 39.5043 28.995 39.59L31.425 41.636C31.5463 41.739 31.687 41.8167 31.8389 41.8645C31.9907 41.9122 32.1505 41.9291 32.309 41.9141C32.4674 41.8991 32.6212 41.8525 32.7614 41.7771C32.9016 41.7017 33.0252 41.5989 33.125 41.475L33.472 41.054C33.6006 40.8965 33.6919 40.712 33.7392 40.5142C33.7864 40.3165 33.7884 40.1106 33.745 39.912C33.705 39.7156 33.6196 39.5313 33.4956 39.3738C33.3716 39.2163 33.2125 39.09 33.031 39.005L32.931 38.959C37.1009 38.1632 41.007 36.3417 44.297 33.659L50.119 36.928C50.3347 37.0496 50.5832 37.1004 50.8293 37.0733C51.0755 37.0462 51.3069 36.9426 51.491 36.777C51.6819 36.6045 51.8193 36.3811 51.8872 36.133C51.9551 35.8849 51.9505 35.6225 51.874 35.377L50.827 31.955Z"
        fill="white" />
</svg>
